<?xml version="1.0" standalone="no"?>
<!DOCTYPE svg PUBLIC "-//W3C//DTD SVG 20010904//EN"
 "http://www.w3.org/TR/2001/REC-SVG-20010904/DTD/svg10.dtd">
<svg version="1.0" xmlns="http://www.w3.org/2000/svg"
 width="640.000000pt" height="640.000000pt" viewBox="0 0 640.000000 640.000000"
 preserveAspectRatio="xMidYMid meet">
<metadata>
Created by potrace 1.11, written by Peter Selinger 2001-2013
</metadata>
<g transform="translate(0.000000,640.000000) scale(0.100000,-0.100000)"
fill="#000000" stroke="none">
<path d="M640 6385 c-320 -64 -564 -312 -626 -632 -21 -112 -21 -4994 0 -5106
62 -324 309 -570 634 -633 111 -21 4994 -21 5105 0 324 62 570 309 633 634 21
110 21 4994 0 5104 -63 325 -309 572 -633 634 -106 20 -5012 19 -5113 -1z
m3705 -1149 c18 -13 19 -18 7 -72 -25 -123 -158 -355 -356 -623 -51 -69 -105
-144 -120 -167 -25 -39 -32 -43 -139 -74 -148 -43 -296 -95 -376 -131 -71 -32
-204 -118 -268 -174 -43 -36 -43 -36 -27 -67 25 -49 136 -151 201 -185 33 -18
100 -46 149 -64 111 -38 283 -112 349 -150 83 -46 132 -95 165 -162 55 -113
51 -194 -20 -343 -55 -119 -116 -209 -434 -643 -295 -404 -404 -532 -554 -650
-325 -256 -576 -322 -1227 -323 -216 -1 -266 2 -298 15 -46 20 -47 40 -4 81
127 120 621 363 1396 687 156 66 299 131 318 145 24 18 33 33 33 55 0 68 -39
95 -199 139 -223 62 -355 135 -490 270 -89 88 -134 160 -157 249 -20 81 -14
132 32 271 140 422 581 990 1117 1439 276 230 534 389 759 466 84 28 116 31
143 11z"/>
</g>
</svg>
